<svg width="158" height="87" viewBox="0 0 158 87" fill="none" xmlns="http://www.w3.org/2000/svg">
<rect x="5" y="5" width="90" height="31" fill="white"/>
<path fill-rule="evenodd" clip-rule="evenodd" d="M0.00163502 25.1201C0.00163502 38.9361 0.0147797 50.2402 0.0308019 50.2402C0.0468241 50.2402 0.333785 50.0448 0.668419 49.806C7.07919 45.2308 15.9646 42.5892 24.9316 42.5927C33.8105 42.5961 42.13 45.0831 48.9184 49.7632C49.7056 50.3059 50.2859 50.7477 52.1882 52.2526C52.6738 52.6367 53.6338 53.3311 54.3216 53.7958C63.2175 59.8047 73.7704 61.6095 83.6113 58.8049C87.5505 57.6822 91.4391 55.726 94.7688 53.192C96.7118 51.7133 96.8104 51.6158 120.613 27.6321C133.483 14.6646 144.118 3.91254 144.246 3.73854C144.512 3.37651 144.724 2.75681 144.724 2.34059C144.724 1.92462 144.513 1.30565 144.244 0.936432C143.97 0.560818 143.633 0.309023 143.163 0.128699C142.83 0.00131887 142.088 0 71.4141 0H0.00163502V25.1201ZM148.648 0.362626V0.65932H149.465H150.282L150.299 3.60978L150.316 6.56023L150.659 6.58014L151.003 6.60012V3.62969V0.65932H151.82H152.637V0.362626V0.065932H150.643H148.648V0.362626ZM153.422 3.32594V6.5932H153.749H154.076L154.077 4.0713L154.077 1.5494L154.838 2.98342C155.358 3.96409 155.633 4.41744 155.707 4.41744C155.78 4.41744 156.054 3.97115 156.564 3.01639L157.313 1.61533L157.33 4.10427L157.348 6.5932H157.674H158V3.32594V0.0586794L157.699 0.0787887L157.399 0.098898L156.571 1.66333C156.116 2.52381 155.729 3.22763 155.711 3.22744C155.693 3.22724 155.307 2.52322 154.852 1.663L154.026 0.098898L153.724 0.0787887L153.422 0.0586794V3.32594ZM26.0987 8.86475C27.3018 9.04758 28.0187 9.43283 28.5399 10.1767C29.2009 11.12 29.4013 12.1288 29.5274 15.1479L29.5667 16.0874H27.08H24.5933L24.5634 15.9391C24.547 15.8574 24.5186 15.4347 24.5003 14.9995C24.4579 13.996 24.3646 13.5581 24.1389 13.3034C23.9729 13.1161 23.9209 13.1002 23.2792 13.0409C22.9035 13.0062 21.4338 12.9891 20.013 13.003C17.2081 13.0305 17.1496 13.0381 16.9646 13.3988C16.8111 13.698 16.7263 14.6582 16.7591 15.7248C16.8022 17.1274 16.9095 17.3335 17.6842 17.5026C17.9399 17.5585 19.8119 17.7824 21.8441 18.0002C26.0842 18.4546 26.3502 18.4888 26.9973 18.6633C28.3488 19.0277 29.1924 19.8754 29.5539 21.2324C29.8103 22.1944 29.8552 22.7596 29.8552 25.0212C29.8552 27.274 29.8148 27.7845 29.5525 28.8452C29.243 30.0966 28.5252 31.1123 27.6435 31.5462C26.5285 32.0949 26.0968 32.1258 20.013 32.0922C15.242 32.0658 14.9823 32.0582 14.4088 31.9278C12.6887 31.5365 11.8784 30.589 11.5474 28.5815C11.42 27.8086 11.3158 26.3504 11.3155 25.3344L11.3153 24.5267H13.833H16.3508L16.3509 25.1036C16.3509 25.9194 16.4687 27.0711 16.5793 27.338C16.7654 27.787 16.7729 27.788 20.3974 27.8097C22.5436 27.8226 23.7414 27.8051 23.9691 27.7574C24.3111 27.6859 24.5224 27.5254 24.6206 27.2629C24.7073 27.0308 24.774 25.2438 24.724 24.4929C24.653 23.4285 24.5234 23.2429 23.7406 23.0843C23.5428 23.0442 21.7182 22.8328 19.686 22.6145C17.6538 22.3962 15.7704 22.1864 15.5006 22.1482C13.4181 21.8538 12.3329 20.9957 11.9085 19.308C11.5406 17.8449 11.4893 14.3923 11.8095 12.6452C12.1689 10.6845 13.0415 9.50363 14.4778 9.03426C15.2022 8.7975 15.5921 8.78095 20.5689 8.77528C24.5281 8.7708 25.5942 8.78808 26.0987 8.86475ZM42.8365 10.8458V12.9227H41.4958H40.1552V15.527V18.1313H44.0463H47.9374V15.527V12.9227H46.6295H45.3215V10.8458V8.76896H50.586H55.8504V10.8458V12.9227H54.4771H53.1037V20.406V27.8892H54.4771H55.8504V29.9991V32.1089H50.586H45.3215V29.9991V27.8892H46.6295H47.9374V25.0212V22.1531H44.0463H40.1552V25.0212V27.8892H41.4967H42.8383L42.821 29.9826L42.8038 32.0759L37.523 32.0928L32.2422 32.1097V29.9995V27.8892H33.6155H34.9889V20.406V12.9227H33.6155H32.2422V10.8458V8.76896H37.5393H42.8365V10.8458ZM69.6164 8.90082C69.7861 8.98363 69.9374 9.12466 70.0232 9.27993C70.1123 9.4412 70.7432 12.1519 71.838 17.0764C72.7611 21.2285 73.531 24.6775 73.549 24.741C73.5938 24.8988 73.9444 24.8988 73.9894 24.741C74.0075 24.6776 74.7619 21.2581 75.6659 17.1423C76.6858 12.4985 77.3635 9.54774 77.4521 9.36577C77.5306 9.2045 77.6778 9.01165 77.7794 8.93721C77.9617 8.80357 78.0338 8.80172 83.6488 8.78405L89.3335 8.76612V10.8444V12.9227H87.9602H86.5868V20.406V27.8892H87.9602H89.3335V29.9995V32.1097L84.347 32.0928L79.3605 32.0759V29.9991V27.9222L80.3905 27.9041L81.4205 27.8859V20.7999V13.7139H81.175H80.9295L78.811 22.2685C77.6459 26.9736 76.6388 31.0024 76.5731 31.2214C76.4229 31.7219 76.1973 31.9483 75.753 32.0443C75.5343 32.0916 74.655 32.1099 73.236 32.0965C70.7647 32.0731 70.7425 32.0687 70.4656 31.5408C70.3842 31.3857 69.3993 27.5414 68.1474 22.4925L65.9707 13.7139H65.7499H65.5291V20.8015V27.8892H66.5428H67.5564V29.9991V32.1089H62.7824H58.0085V29.9991V27.8892H59.3818H60.7551V20.406V12.9227H59.3818H58.0085V10.8458V8.76896H63.6773C69.2126 8.76896 69.3526 8.77205 69.6164 8.90082ZM17.975 71.7907C17.4848 71.9539 17.2161 72.1281 16.8567 72.5154C16.3237 73.09 16.1289 73.6419 16.0523 74.7957L16.006 75.4921H15.4918H14.9775V76.2174V76.9426H15.5006H16.0238V80.7667V84.5907H16.874H17.7241V80.7685V76.9463L18.656 76.9279L19.5879 76.9097V76.2174V75.5251L18.6474 75.5068L17.7068 75.4884L17.7411 74.8475C17.819 73.3937 18.3461 72.9162 19.6282 73.1378L19.93 73.1899L20.0957 72.5237L20.2615 71.8576L20.0882 71.7862C19.9929 71.7469 19.5618 71.7041 19.1302 71.6911C18.4938 71.6719 18.2754 71.6908 17.975 71.7907ZM86.9068 71.7636C85.6425 72.1152 84.9781 73.0943 84.904 74.7149L84.8688 75.4871L84.3381 75.5061L83.8075 75.5251V76.2174V76.9097L84.347 76.9288L84.8865 76.948V80.7693V84.5907H85.704H86.5214V80.7667V76.9426H87.4697H88.4179V76.2174V75.4921H87.4638H86.5097L86.553 74.9152C86.5769 74.598 86.6392 74.1828 86.6914 73.9927C86.8852 73.2877 87.4931 72.9583 88.3164 73.1122C88.5304 73.1521 88.7249 73.1625 88.7488 73.1353C88.8195 73.0544 89.0781 71.9293 89.0401 71.8674C88.9242 71.6783 87.4685 71.6075 86.9068 71.7636ZM108.102 78.1953V84.5907H108.952H109.802L109.818 81.0561L109.835 77.5213L110.251 77.2681C110.859 76.8975 111.438 76.7181 112.026 76.7185C112.649 76.7189 112.972 76.8733 113.204 77.282L113.367 77.569L113.385 81.0799L113.404 84.5907H114.255H115.107L115.085 80.948C115.064 77.3905 115.06 77.295 114.919 76.8699C114.591 75.8865 113.754 75.358 112.53 75.3614C111.861 75.3633 111.264 75.5248 110.506 75.9088L109.803 76.2648V74.0324V71.7999H108.952H108.102V78.1953ZM2.17614 75.4575C1.1568 75.748 0.523501 76.3564 0.291866 77.2679C-0.0316517 78.5413 0.632451 79.4885 2.62947 80.6019C4.00358 81.368 4.3341 81.8457 3.99803 82.5798C3.75959 83.1007 3.30672 83.339 2.56021 83.3367C2.07438 83.3351 1.39138 83.1241 0.97683 82.8475L0.724661 82.6793L0.507282 83.0251C0.387803 83.2153 0.224703 83.4789 0.144985 83.6109L0 83.8507L0.331104 84.0649C0.890572 84.4268 1.7026 84.6727 2.45473 84.7079C3.2493 84.745 3.71054 84.6573 4.30977 84.355C4.82726 84.094 5.26849 83.6535 5.53413 83.1325C5.68304 82.8405 5.72018 82.6692 5.74372 82.1655C5.77093 81.5835 5.76223 81.5327 5.56598 81.1308C5.30642 80.5993 4.73766 80.0609 3.96042 79.611C2.24389 78.6174 1.84105 78.2314 1.91789 77.6538C2.04829 76.6734 3.1739 76.5125 4.84982 77.2345C4.93411 77.2708 5.02057 77.1595 5.25855 76.7086C5.42452 76.3939 5.56035 76.1147 5.56035 76.0878C5.56035 76.021 4.75741 75.6581 4.31782 75.5263C3.8038 75.3721 2.61018 75.3338 2.17614 75.4575ZM9.28286 75.4585C8.73549 75.5629 7.73917 75.8648 7.6964 75.9392C7.67214 75.9814 7.96571 77.0723 8.01717 77.1311C8.02849 77.1441 8.34115 77.0709 8.71195 76.9684C9.28868 76.8089 9.50953 76.7818 10.2409 76.7799C11.0586 76.7779 11.107 76.7854 11.3587 76.9532C11.7484 77.2131 11.8608 77.5044 11.8917 78.3344L11.9177 79.0338L10.8154 79.0705C9.60115 79.1109 9.20105 79.1907 8.47011 79.5381C7.5662 79.9678 7.01831 80.7623 6.95206 81.7393C6.86665 82.9989 7.41873 84.038 8.42636 84.5143C8.76662 84.6751 8.8655 84.6896 9.61495 84.6888C10.5351 84.6879 10.8976 84.5901 11.5974 84.1547C11.8067 84.0245 11.9912 83.9316 12.0076 83.9481C12.024 83.9647 12.0748 84.1086 12.1205 84.268L12.2036 84.5578L12.8712 84.5766L13.5387 84.5954V81.0396C13.5387 77.6918 13.5312 77.4595 13.4103 77.0647C13.1763 76.3008 12.71 75.8346 11.8984 75.5532C11.3562 75.3652 10.0247 75.3169 9.28286 75.4585ZM22.9077 75.4558C21.697 75.7338 20.9284 76.5643 20.5248 78.0305C20.3962 78.4976 20.3792 78.7202 20.3762 79.9755C20.3721 81.626 20.4507 82.0959 20.8732 82.9468C21.3231 83.8532 22.0094 84.3955 23.0049 84.6313C23.5615 84.7632 25.0166 84.7222 25.6044 84.5582C26.144 84.4076 26.7489 84.1282 26.7489 84.0295C26.7489 83.9579 26.3135 82.9439 26.2589 82.8882C26.2473 82.8764 26.0016 82.9422 25.7127 83.0342C24.3362 83.4725 23.2525 83.3805 22.702 82.7785C22.3182 82.3587 22.0983 81.7336 22.0235 80.8498L21.9943 80.5045L24.5841 80.4872L27.174 80.47L27.1561 79.7118C27.1002 77.3397 26.4829 76.0736 25.1296 75.5551C24.644 75.369 23.507 75.3182 22.9077 75.4558ZM34.0802 75.4646C33.343 75.6645 32.6522 76.1964 32.372 76.7798C32.2035 77.1309 32.1017 77.7438 32.154 78.0931C32.2736 78.8911 32.9003 79.6215 34.0461 80.2982C35.468 81.138 35.7675 81.359 35.9404 81.6963C36.2246 82.2502 35.7974 83.0835 35.134 83.2692C34.503 83.4458 33.6131 83.2839 32.9433 82.8705L32.6308 82.6776L32.5044 82.8925C32.435 83.0106 32.275 83.2705 32.1489 83.4699C31.8818 83.8927 31.8663 83.8658 32.593 84.2381C33.4934 84.6994 34.7615 84.8603 35.5819 84.6174C36.42 84.3692 37.1501 83.7871 37.4618 83.1184C37.6491 82.7168 37.7343 82.1298 37.667 81.7043C37.5198 80.7733 36.9611 80.2193 35.0549 79.1143C34.1465 78.5877 33.7453 78.0784 33.8396 77.5714C33.9846 76.7927 34.9072 76.5645 36.1336 77.004C36.4571 77.1199 36.7599 77.2203 36.8063 77.2271C36.8528 77.2338 37.0294 76.9811 37.1987 76.6656C37.5011 76.1022 37.5043 76.0901 37.3758 75.9922C37.1725 75.8373 36.2125 75.5026 35.7583 75.4283C35.1924 75.3357 34.5003 75.3507 34.0802 75.4646ZM41.4147 75.4927C40.3594 75.7714 39.6595 76.4659 39.2774 77.6134C38.88 78.8071 38.8246 80.6788 39.1474 82.0119C39.4895 83.4247 40.3322 84.3198 41.6054 84.6224C42.1497 84.7517 43.3 84.7496 43.9346 84.6182C44.5226 84.4963 45.3887 84.151 45.3829 84.0407C45.3752 83.8932 44.8753 82.8437 44.8209 82.8604C44.7905 82.8695 44.5596 82.9494 44.3077 83.0378C43.6923 83.2536 42.8191 83.3593 42.3202 83.2783C41.2878 83.1107 40.8267 82.4504 40.647 80.8821L40.6036 80.503H43.1876C44.6088 80.503 45.7846 80.4807 45.8004 80.4535C45.8558 80.3588 45.7197 78.5545 45.6223 78.0912C45.5157 77.5838 45.2943 76.9405 45.1365 76.6789C44.9448 76.3615 44.4359 75.8755 44.1293 75.717C43.4246 75.3528 42.2966 75.2597 41.4147 75.4927ZM49.5018 75.4626C48.9459 75.5641 47.9602 75.8632 47.9095 75.9457C47.8808 75.9927 48.1757 77.0681 48.2346 77.1311C48.2468 77.1441 48.5601 77.0712 48.9309 76.9692C49.4975 76.8132 49.7353 76.7831 50.4225 76.7807C51.4081 76.7772 51.6396 76.8618 51.908 77.3235C52.059 77.5834 52.0849 77.7127 52.1104 78.3369L52.1396 79.0525H51.3512C49.0323 79.0525 47.7503 79.6964 47.2818 81.0964C47.1619 81.4548 47.1432 81.6282 47.1677 82.1559C47.1927 82.6942 47.2288 82.8567 47.4135 83.2605C47.6706 83.8229 48.0928 84.2532 48.6425 84.5129C48.987 84.6757 49.0807 84.6894 49.8339 84.6868C50.5544 84.6842 50.702 84.6637 51.078 84.5141C51.3127 84.4206 51.6599 84.2478 51.8497 84.1301C52.0395 84.0124 52.2039 83.9269 52.2152 83.9402C52.2264 83.9535 52.2789 84.0979 52.3317 84.2611L52.4277 84.5578L53.0927 84.5766L53.7577 84.5954V81.1348C53.7577 78.8238 53.7333 77.5583 53.6842 77.325C53.4718 76.3158 52.816 75.6854 51.739 75.4552C51.1989 75.3398 50.1555 75.3433 49.5018 75.4626ZM57.3872 75.454C56.4095 75.7006 55.7371 76.3091 55.4882 77.1725C55.3463 77.6645 55.3874 78.2685 55.5923 78.7021C55.81 79.1631 56.5652 79.8816 57.2424 80.2722C58.9332 81.2474 59.2728 81.56 59.2614 82.1311C59.2375 83.3345 57.7511 83.7231 56.2719 82.9124L55.8761 82.6955L55.529 83.2608L55.182 83.8261L55.3363 83.9547C55.5836 84.1607 56.3666 84.501 56.8788 84.6252C57.5232 84.7813 58.6029 84.7356 59.1349 84.5297C59.6346 84.3362 60.2355 83.881 60.497 83.4979C60.7621 83.1093 60.9513 82.51 60.9513 82.0584C60.9513 81.0073 60.3608 80.3011 58.6684 79.3284C57.4096 78.6048 57.0927 78.2814 57.0932 77.7206C57.0939 76.8412 58.0452 76.5377 59.3491 77.001C59.6728 77.1161 59.9818 77.2251 60.0358 77.2433C60.1058 77.2669 60.2239 77.1061 60.4478 76.682L60.7618 76.0876L60.5459 75.9542C59.7531 75.464 58.2751 75.23 57.3872 75.454ZM71.0524 75.4522C70.2749 75.6427 69.5847 76.1634 69.2815 76.7883C69.03 77.3065 68.9928 78.0156 69.1896 78.5413C69.4456 79.2254 70.0398 79.7733 71.3594 80.5417C72.6416 81.2885 72.9189 81.567 72.9189 82.1085C72.9189 83.3214 71.4198 83.7256 69.9389 82.9123L69.5419 82.6943L69.1917 83.2568L68.8415 83.8193L69.0001 83.9513C69.2447 84.155 70.0504 84.5129 70.5102 84.6223C71.035 84.7469 71.9964 84.7492 72.4526 84.6268C73.3508 84.3858 74.02 83.852 74.3764 83.0924C74.5645 82.6913 74.5857 82.5852 74.5841 82.0524C74.5822 81.4196 74.4928 81.157 74.103 80.6392C73.8768 80.3387 73.0963 79.7637 72.3073 79.3162C71.109 78.6364 70.7606 78.2814 70.7611 77.7405C70.7618 76.8375 71.6955 76.5315 73.017 77.001C73.3407 77.1161 73.6497 77.2248 73.7037 77.2426C73.7736 77.2656 73.8907 77.1042 74.1109 76.6807L74.42 76.0866L74.2699 75.9873C73.5185 75.4911 71.9554 75.231 71.0524 75.4522ZM78.1507 75.4536C77.5454 75.5621 76.7819 75.7886 76.621 75.9072C76.5051 75.9927 76.5071 76.0172 76.6759 76.5751C76.8347 77.1 76.8644 77.1511 76.9941 77.1213C77.0727 77.1032 77.3724 77.0235 77.6602 76.944C78.307 76.7655 79.5226 76.6906 79.8745 76.8077C80.1929 76.9136 80.5014 77.1817 80.6119 77.4484C80.6678 77.5834 80.7011 77.9193 80.7011 78.3488V79.034L79.6384 79.0704C78.4586 79.1109 77.7961 79.2456 77.2191 79.562C76.1481 80.1495 75.6128 81.232 75.7944 82.443C75.9352 83.3819 76.4458 84.1096 77.2247 84.4816C77.6427 84.6813 77.693 84.6895 78.4776 84.6866C79.385 84.6832 79.6734 84.6047 80.4015 84.1626C80.61 84.0361 80.8029 83.9463 80.83 83.9632C80.8572 83.9801 80.9167 84.1282 80.9623 84.2923L81.0451 84.5907H81.7264H82.4077L82.3861 80.981C82.367 77.7597 82.3523 77.3343 82.2506 77.0279C82.0208 76.3367 81.4508 75.7891 80.7147 75.5525C80.1583 75.3737 78.8724 75.3241 78.1507 75.4536ZM91.7865 75.4377C90.9495 75.5987 90.1612 76.1947 89.7459 76.9805C89.1198 78.1653 88.9522 80.4225 89.3689 82.0574C89.5153 82.6319 89.8744 83.3548 90.1788 83.6877C90.8069 84.3747 91.4795 84.6554 92.6197 84.7063C93.5295 84.747 94.1851 84.6555 94.9249 84.3844C95.697 84.1015 95.6647 84.173 95.3482 83.4481L95.072 82.8157L94.8923 82.9095C94.5104 83.1085 93.6209 83.2904 92.9957 83.2972C92.4378 83.3034 92.3357 83.2849 91.994 83.1162C91.3861 82.8161 91.0667 82.2732 90.9026 81.2612C90.8672 81.0436 90.8382 80.784 90.838 80.6843L90.8376 80.503H93.4208H96.004V79.9243C96.004 77.7897 95.4285 76.3106 94.3726 75.7312C93.7698 75.4004 92.6447 75.2728 91.7865 75.4377ZM102.966 75.4522C102.186 75.6432 101.485 76.1868 101.171 76.8437C101.042 77.1144 101.013 77.2796 101.01 77.7668C101.007 78.2873 101.029 78.4063 101.19 78.7362C101.427 79.2228 102.084 79.838 102.829 80.2722C104.53 81.2625 104.854 81.5612 104.843 82.1277C104.819 83.3242 103.32 83.718 101.853 82.9128L101.458 82.6955L101.111 83.2608L100.763 83.8261L100.918 83.9547C101.165 84.1607 101.948 84.501 102.46 84.6252C103.155 84.7935 104.194 84.7382 104.76 84.5025C106.41 83.8161 107.045 82.0069 106.084 80.7296C105.775 80.3184 105.163 79.8552 104.177 79.2843C102.953 78.5757 102.674 78.2857 102.675 77.7206C102.675 76.8412 103.627 76.5377 104.931 77.001C105.254 77.1161 105.563 77.2251 105.617 77.2433C105.687 77.2669 105.805 77.1061 106.029 76.682L106.343 76.0876L106.127 75.9542C105.342 75.4689 103.859 75.2334 102.966 75.4522ZM119.569 75.4325C118.241 75.6561 117.402 76.4996 116.984 78.0305C116.856 78.4979 116.839 78.7232 116.836 80.0085C116.833 81.2111 116.854 81.5435 116.955 81.9535C117.226 83.0531 117.809 83.915 118.552 84.3144C119.084 84.6 119.651 84.7206 120.462 84.7206C121.669 84.7206 122.469 84.4216 123.097 83.7363C123.703 83.0757 124.009 82.2234 124.136 80.845C124.224 79.893 124.136 78.7042 123.921 77.9223C123.544 76.5499 122.727 75.7274 121.475 75.4601C120.98 75.3544 120.108 75.3418 119.569 75.4325ZM129.013 75.4286C128.634 75.5236 128.131 75.8033 127.821 76.0909L127.541 76.3517L127.355 75.9219L127.169 75.4921H126.562H125.956V80.0414V84.5907H126.773H127.591V81.1206V77.6505L127.826 77.4261C128.275 76.9992 128.928 76.7948 129.631 76.8607C129.981 76.8934 129.931 76.9777 130.139 76.0137C130.205 75.7087 130.245 75.4448 130.228 75.4273C130.17 75.3663 129.257 75.3674 129.013 75.4286ZM133.51 75.4377C132.673 75.5987 131.884 76.1947 131.469 76.9805C130.787 78.2712 130.66 80.7491 131.192 82.368C131.422 83.0663 131.712 83.5417 132.142 83.9236C132.749 84.4625 133.295 84.6563 134.343 84.705C135.253 84.7473 135.905 84.6565 136.648 84.3844C137.42 84.1015 137.388 84.173 137.071 83.4481L136.795 82.8157L136.615 82.9095C136.228 83.1114 135.345 83.2904 134.719 83.2941C133.757 83.2997 133.29 83.0441 132.931 82.3161C132.758 81.9658 132.561 81.1248 132.561 80.7365V80.503H135.144H137.727V79.9243C137.727 77.7897 137.152 76.3106 136.096 75.7312C135.493 75.4004 134.368 75.2728 133.51 75.4377ZM141.092 75.4522C140.314 75.6429 139.615 76.1842 139.295 76.8437C139.074 77.3007 139.064 78.2084 139.276 78.6712C139.557 79.2851 140.252 79.8942 141.434 80.5627C142.626 81.2363 142.98 81.5968 142.969 82.1259C142.945 83.3242 141.447 83.7187 139.98 82.9128L139.584 82.6955L139.237 83.2608L138.89 83.8261L139.044 83.9547C139.292 84.1611 140.1 84.5158 140.584 84.6301C141.263 84.7908 142.338 84.7315 142.886 84.5029C143.979 84.0472 144.659 83.1039 144.659 82.0427C144.659 81.0021 144.064 80.306 142.302 79.2843C141.078 78.5749 140.8 78.2853 140.801 77.7206C140.802 76.8412 141.753 76.5377 143.057 77.001C143.381 77.1161 143.69 77.2248 143.744 77.2427C143.813 77.2658 143.931 77.1044 144.153 76.6824L144.464 76.0896L144.312 75.9889C143.558 75.4911 141.997 75.2307 141.092 75.4522ZM24.5608 76.8688C25.0971 77.1144 25.4294 77.772 25.4897 78.7074L25.5249 79.2524L23.7665 79.2349L22.008 79.2173L22.0286 78.9536C22.1146 77.8516 22.5511 77.0477 23.1848 76.8244C23.5136 76.7085 24.2636 76.7327 24.5608 76.8688ZM43.3497 76.9612C43.4951 77.0581 43.69 77.2683 43.7829 77.4282C43.9722 77.7537 44.1415 78.463 44.1433 78.9371L44.1444 79.2503H42.3765H40.6085L40.6501 78.9041C40.76 77.9878 41.0237 77.3498 41.4175 77.047C41.7575 76.7855 41.9188 76.7442 42.5195 76.7651C43.0046 76.782 43.1232 76.81 43.3497 76.9612ZM93.3554 76.8698C93.6866 77.0245 93.9338 77.2896 94.0999 77.6683C94.2337 77.9732 94.3677 78.6554 94.3685 79.036L94.369 79.2503H92.6033H90.8376V79.0827C90.8376 78.7599 91.0456 77.9037 91.1964 77.6058C91.3784 77.2464 91.6377 76.986 91.9494 76.8499C92.2775 76.7067 93.0286 76.7173 93.3554 76.8698ZM135.032 76.8472C135.341 76.9774 135.611 77.2357 135.775 77.5582C135.914 77.8294 136.092 78.656 136.092 79.0253V79.2503H134.326H132.561V79.0827C132.561 78.7599 132.769 77.9037 132.92 77.6058C133.101 77.2464 133.361 76.986 133.672 76.8499C133.975 76.7179 134.721 76.7164 135.032 76.8472ZM121.206 76.8919C121.594 77.0092 122.049 77.4825 122.218 77.9464C122.422 78.5046 122.511 79.4098 122.468 80.47C122.384 82.5188 121.862 83.277 120.528 83.2903C119.892 83.2966 119.536 83.1894 119.211 82.8939C118.642 82.3755 118.477 81.7525 118.472 80.1074C118.467 78.6763 118.573 78.0637 118.913 77.5583C119.155 77.2 119.354 77.0386 119.714 76.9091C120.036 76.7936 120.85 76.7842 121.206 76.8919ZM11.9038 81.5159V82.6608L11.6586 82.8313C10.1817 83.8584 8.67709 83.4166 8.66924 81.9535C8.66643 81.4437 8.81763 81.1023 9.17515 80.8105C9.58964 80.4723 9.99398 80.3756 11.0046 80.3733L11.9038 80.3711V81.5159ZM52.1228 81.5181V82.665L51.8116 82.8663C51.333 83.176 50.9292 83.3349 50.5103 83.3787C49.9626 83.4359 49.5962 83.3185 49.2763 82.9831C48.6712 82.3489 48.7236 81.3448 49.3895 80.8109C49.813 80.4713 50.2139 80.3756 51.2236 80.3733L52.1228 80.3711V81.5181ZM80.7011 81.5245V82.6779L80.4327 82.8739C80.0554 83.1495 79.4989 83.3481 79.0008 83.3851C78.6249 83.413 78.5345 83.3947 78.2183 83.2267C77.9275 83.0723 77.8269 82.9713 77.6788 82.6854C77.2849 81.9254 77.5361 81.029 78.2488 80.6508C78.6528 80.4364 78.9787 80.3799 79.8346 80.3755L80.7011 80.3711V81.5245ZM62.9387 82.6065C62.6224 82.8009 62.4356 83.1149 62.4035 83.5059C62.3674 83.9439 62.4639 84.2362 62.7593 84.5842L62.9939 84.8604L62.7907 85.6321C62.679 86.0566 62.5604 86.4988 62.5271 86.6148C62.4665 86.8256 62.4667 86.8258 62.8 86.9243C62.9835 86.9786 63.1527 87.011 63.1761 86.9965C63.1993 86.982 63.5238 86.3086 63.8969 85.5002C64.4731 84.2519 64.5791 83.9707 64.6001 83.6347C64.621 83.3024 64.6003 83.2025 64.4706 83.01C64.2212 82.6398 63.932 82.4809 63.5085 82.4812C63.2642 82.4813 63.0743 82.5231 62.9387 82.6065Z" fill="#FF4600"/>
</svg>
